<mxfile host="app.diagrams.net" modified="2023-05-24T23:21:27.587Z" agent="Mozilla/5.0 (Windows NT 10.0; Win64; x64) AppleWebKit/537.36 (KHTML, like Gecko) Chrome/113.0.0.0 Safari/537.36" etag="QKlLqes0UtgkRCFhD7ya" version="21.3.3" type="github">
  <diagram name="PÃ¡gina-1" id="xu5Bi3SGavXfmcb59zbs">
    <mxGraphModel dx="1221" dy="640" grid="1" gridSize="10" guides="1" tooltips="1" connect="1" arrows="1" fold="1" page="1" pageScale="1" pageWidth="1100" pageHeight="850" math="0" shadow="0">
      <root>
        <mxCell id="0" />
        <mxCell id="1" parent="0" />
        <mxCell id="Cf5SoD5GGMmA8NEK9c5V-2" value="" style="rounded=0;whiteSpace=wrap;html=1;fillColor=none;" vertex="1" parent="1">
          <mxGeometry x="425" y="120" width="310" height="410" as="geometry" />
        </mxCell>
        <mxCell id="Cf5SoD5GGMmA8NEK9c5V-8" style="rounded=0;orthogonalLoop=1;jettySize=auto;html=1;entryX=0;entryY=0;entryDx=0;entryDy=0;" edge="1" parent="1" source="Cf5SoD5GGMmA8NEK9c5V-3" target="Cf5SoD5GGMmA8NEK9c5V-7">
          <mxGeometry relative="1" as="geometry" />
        </mxCell>
        <mxCell id="Cf5SoD5GGMmA8NEK9c5V-14" style="rounded=0;orthogonalLoop=1;jettySize=auto;html=1;" edge="1" parent="1" source="Cf5SoD5GGMmA8NEK9c5V-3" target="Cf5SoD5GGMmA8NEK9c5V-13">
          <mxGeometry relative="1" as="geometry" />
        </mxCell>
        <mxCell id="Cf5SoD5GGMmA8NEK9c5V-18" style="rounded=0;orthogonalLoop=1;jettySize=auto;html=1;entryX=0;entryY=0;entryDx=0;entryDy=0;" edge="1" parent="1" source="Cf5SoD5GGMmA8NEK9c5V-3" target="Cf5SoD5GGMmA8NEK9c5V-15">
          <mxGeometry relative="1" as="geometry" />
        </mxCell>
        <mxCell id="Cf5SoD5GGMmA8NEK9c5V-26" style="rounded=0;orthogonalLoop=1;jettySize=auto;html=1;entryX=0;entryY=0;entryDx=0;entryDy=0;" edge="1" parent="1" source="Cf5SoD5GGMmA8NEK9c5V-3" target="Cf5SoD5GGMmA8NEK9c5V-20">
          <mxGeometry relative="1" as="geometry" />
        </mxCell>
        <mxCell id="Cf5SoD5GGMmA8NEK9c5V-3" value="Administrativo" style="shape=umlActor;verticalLabelPosition=bottom;verticalAlign=top;html=1;outlineConnect=0;" vertex="1" parent="1">
          <mxGeometry x="330" y="180" width="30" height="60" as="geometry" />
        </mxCell>
        <mxCell id="Cf5SoD5GGMmA8NEK9c5V-9" style="rounded=0;orthogonalLoop=1;jettySize=auto;html=1;entryX=0;entryY=1;entryDx=0;entryDy=0;" edge="1" parent="1" source="Cf5SoD5GGMmA8NEK9c5V-4" target="Cf5SoD5GGMmA8NEK9c5V-7">
          <mxGeometry relative="1" as="geometry" />
        </mxCell>
        <mxCell id="Cf5SoD5GGMmA8NEK9c5V-17" style="rounded=0;orthogonalLoop=1;jettySize=auto;html=1;entryX=0;entryY=0.5;entryDx=0;entryDy=0;" edge="1" parent="1" source="Cf5SoD5GGMmA8NEK9c5V-4" target="Cf5SoD5GGMmA8NEK9c5V-15">
          <mxGeometry relative="1" as="geometry" />
        </mxCell>
        <mxCell id="Cf5SoD5GGMmA8NEK9c5V-27" style="rounded=0;orthogonalLoop=1;jettySize=auto;html=1;entryX=0;entryY=0.5;entryDx=0;entryDy=0;" edge="1" parent="1" source="Cf5SoD5GGMmA8NEK9c5V-4" target="Cf5SoD5GGMmA8NEK9c5V-20">
          <mxGeometry relative="1" as="geometry" />
        </mxCell>
        <mxCell id="Cf5SoD5GGMmA8NEK9c5V-4" value="Secretaria" style="shape=umlActor;verticalLabelPosition=bottom;verticalAlign=top;html=1;outlineConnect=0;" vertex="1" parent="1">
          <mxGeometry x="330" y="320" width="30" height="60" as="geometry" />
        </mxCell>
        <mxCell id="Cf5SoD5GGMmA8NEK9c5V-11" style="rounded=0;orthogonalLoop=1;jettySize=auto;html=1;entryX=1;entryY=0.5;entryDx=0;entryDy=0;" edge="1" parent="1" source="Cf5SoD5GGMmA8NEK9c5V-5" target="Cf5SoD5GGMmA8NEK9c5V-7">
          <mxGeometry relative="1" as="geometry" />
        </mxCell>
        <mxCell id="Cf5SoD5GGMmA8NEK9c5V-16" style="rounded=0;orthogonalLoop=1;jettySize=auto;html=1;entryX=1;entryY=0.5;entryDx=0;entryDy=0;" edge="1" parent="1" source="Cf5SoD5GGMmA8NEK9c5V-5" target="Cf5SoD5GGMmA8NEK9c5V-15">
          <mxGeometry relative="1" as="geometry" />
        </mxCell>
        <mxCell id="Cf5SoD5GGMmA8NEK9c5V-5" value="Contador" style="shape=umlActor;verticalLabelPosition=bottom;verticalAlign=top;html=1;outlineConnect=0;" vertex="1" parent="1">
          <mxGeometry x="780" y="270" width="30" height="60" as="geometry" />
        </mxCell>
        <mxCell id="Cf5SoD5GGMmA8NEK9c5V-7" value="Login" style="ellipse;whiteSpace=wrap;html=1;" vertex="1" parent="1">
          <mxGeometry x="530" y="240" width="100" height="50" as="geometry" />
        </mxCell>
        <mxCell id="Cf5SoD5GGMmA8NEK9c5V-13" value="Generar boletas" style="ellipse;whiteSpace=wrap;html=1;" vertex="1" parent="1">
          <mxGeometry x="520" y="160" width="120" height="50" as="geometry" />
        </mxCell>
        <mxCell id="Cf5SoD5GGMmA8NEK9c5V-19" style="edgeStyle=orthogonalEdgeStyle;rounded=0;orthogonalLoop=1;jettySize=auto;html=1;exitX=0.5;exitY=1;exitDx=0;exitDy=0;" edge="1" parent="1" source="Cf5SoD5GGMmA8NEK9c5V-15" target="Cf5SoD5GGMmA8NEK9c5V-15">
          <mxGeometry relative="1" as="geometry" />
        </mxCell>
        <mxCell id="Cf5SoD5GGMmA8NEK9c5V-20" value="Ingresar&lt;br&gt;Apoderado/alumnos" style="ellipse;whiteSpace=wrap;html=1;" vertex="1" parent="1">
          <mxGeometry x="517.5" y="390" width="125" height="60" as="geometry" />
        </mxCell>
        <mxCell id="Cf5SoD5GGMmA8NEK9c5V-15" value="Consultar Boletas" style="ellipse;whiteSpace=wrap;html=1;" vertex="1" parent="1">
          <mxGeometry x="525" y="320" width="110" height="50" as="geometry" />
        </mxCell>
      </root>
    </mxGraphModel>
  </diagram>
</mxfile>
